# xmcd
#
# Track frame offsets: 
#        150
#        13390
#        32765
#        45707
#        61240
#        76032
#        86822
#        101372
#        119900
#        137785
#
# Disc length: 2021 seconds
#
# Revision: 2
# Processed by: cddbd v1.5.1PL0 Copyright (c) Steve Scherf et al.
# Submitted via: ExactAudioCopy v0.95b3
#
DISCID=8407e30a
DTITLE=Various Artist - 80's Hits...Country Vol. 1
DYEAR=1990
DGENRE=Country
TTITLE0=Sawyer Brown - The Race Is On
TTITLE1=The Judds - Grandpa (Tell Me 'Bout The Good Old Days)
TTITLE2=Hank Williams Jr and Hank Williams Sr - There's A Tear In My Bee
TTITLE2=r
TTITLE3=Desert Rose Band - One Step Forward
TTITLE4=Lyle Lovett - She's No Lady
TTITLE5=Ronnie McDowell - It's Only Make Believe
TTITLE6=Moe Bandy - Till I'm Too Old To Die Young
TTITLE7=The Bellamy Brothers - Old Hippie
TTITLE8=Marie Osmand and Dan Seals - Meet Me In Montana
TTITLE9=The Whites - You Put The Blue In Me
EXTD=
EXTT0=Sawyer Brown\n
EXTT1=The Judds\n
EXTT2=Hank Williams Jr. and Hank Williams Sr.\n
EXTT3=Desert Rose Band\n
EXTT4=Lyle Lovett\n
EXTT5=Ronnie McDowell\n
EXTT6=Moe Brandy\n
EXTT7=The Bellamy Brothers\n
EXTT8=Marie Osmond and Dan Seals\n
EXTT9=The Whites\n
PLAYORDER=
